<svg width="89" height="20" viewBox="0 0 89 20" fill="none" xmlns="http://www.w3.org/2000/svg">
<path d="M21.1628 8.23574L20.399 7.15504C20.2945 7.00711 20.0897 6.97199 19.9419 7.07648C19.7939 7.18103 19.7588 7.3857 19.8634 7.53363L20.6271 8.61433C21.5839 9.9681 21.8219 11.7083 21.264 13.2694C21.0947 13.7428 20.7202 14.0929 20.2363 14.2298C19.7519 14.3665 19.25 14.2647 18.8578 13.9499L15.7119 11.4256C15.2405 11.0473 14.6116 10.9185 14.0296 11.081L7.70282 12.8466C7.1207 13.009 6.64934 13.4449 6.44199 14.0125L5.05779 17.8011C4.88591 18.2716 4.51106 18.6182 4.02888 18.7528C4.02706 18.7533 4.02528 18.7538 4.02346 18.7543C3.53865 18.8878 3.03695 18.7822 2.64701 18.4648C2.57105 18.403 2.49602 18.3382 2.42395 18.2723C2.29023 18.1501 2.08274 18.1593 1.96055 18.293C1.83828 18.4267 1.84755 18.6341 1.98119 18.7564C2.06251 18.8307 2.14714 18.9038 2.23288 18.9736C2.78949 19.4267 3.50562 19.5772 4.19754 19.3867L4.20533 19.3846C4.89354 19.1925 5.42857 18.6978 5.67394 18.0262L7.05814 14.2377C7.19317 13.868 7.50009 13.5842 7.87915 13.4784L14.2059 11.7128C14.5849 11.6071 14.9944 11.6909 15.3014 11.9372L18.4473 14.4616C19.005 14.9091 19.7189 15.0553 20.4071 14.8632L20.4149 14.861C21.1055 14.6656 21.6401 14.166 21.8817 13.4902C22.5115 11.7281 22.2428 9.76382 21.1628 8.23574Z" fill="white"/>
<path d="M1.51987 17.1766C0.960973 16.2649 0.70559 15.2192 0.781382 14.1527L1.28029 7.13176C1.38978 5.59123 2.46274 4.27731 3.95031 3.86217L12.5876 1.45177C14.0751 1.03665 15.6734 1.6051 16.5648 2.86631L19.0051 6.31918C19.1096 6.46715 19.3143 6.5023 19.4622 6.39774C19.6102 6.29319 19.6453 6.08852 19.5408 5.94059L17.1005 2.48772C16.0496 1.00075 14.1651 0.33049 12.4113 0.819926L3.77394 3.23035C2.02005 3.71981 0.755009 5.26896 0.625986 7.08526L0.127075 14.1062C0.0414986 15.3101 0.329759 16.4904 0.960578 17.5195C1.18044 17.8865 1.74675 17.535 1.51987 17.1766Z" fill="white"/>
<path d="M4.45862 9.3318L5.33582 9.087C5.65136 8.99894 5.83647 8.67057 5.7484 8.35499L5.58563 7.77173L6.16894 7.60895C6.48448 7.52089 6.66959 7.19252 6.58152 6.87694L6.33672 5.99974C6.24867 5.68421 5.9203 5.49909 5.60472 5.58716L5.02141 5.74994L4.85864 5.16668C4.77059 4.85115 4.44222 4.66603 4.12664 4.7541L3.24944 4.9989C2.9339 5.08696 2.74878 5.41532 2.83685 5.7309L2.99962 6.31417L2.41636 6.47694C2.10082 6.56499 1.91571 6.89336 2.00377 7.20894L2.24857 8.08614C2.33663 8.40168 2.665 8.58679 2.98058 8.49872L3.56384 8.33595L3.72661 8.91921C3.81468 9.23479 4.14304 9.41987 4.45862 9.3318ZM2.86384 7.85026L2.65228 7.09219L3.40646 6.88172C3.62777 6.81995 3.75759 6.58964 3.69583 6.36833L3.48536 5.61415L4.24343 5.40259L4.4539 6.15677C4.51566 6.37808 4.74598 6.5079 4.96729 6.44614L5.72152 6.23565L5.93307 6.99373L5.17885 7.20421C4.95754 7.26597 4.82772 7.49629 4.88948 7.7176L5.09995 8.47178L4.34187 8.68333L4.13141 7.92915C4.06964 7.70784 3.83933 7.57803 3.61802 7.63979L2.86384 7.85026Z" fill="white"/>
<path d="M13.4584 2.68682C13.1717 2.76683 13.0041 3.0641 13.0842 3.3508C13.1642 3.6375 13.4614 3.80505 13.7481 3.72504C14.0348 3.64503 14.2024 3.34776 14.1224 3.06107C14.0424 2.77437 13.7451 2.60682 13.4584 2.68682Z" fill="white"/>
<path d="M14.392 6.03217C14.6787 5.95216 14.8462 5.65489 14.7662 5.36819C14.6862 5.08149 14.389 4.91394 14.1023 4.99395C13.8156 5.07395 13.648 5.37122 13.728 5.65792C13.808 5.94462 14.1053 6.11218 14.392 6.03217Z" fill="white"/>
<path d="M15.2236 4.55666C15.5103 4.47666 15.6779 4.17939 15.5979 3.8927C15.5179 3.60601 15.2206 3.43846 14.9339 3.51847C14.6472 3.59847 14.4796 3.89574 14.5597 4.18243C14.6397 4.46912 14.9369 4.63667 15.2236 4.55666Z" fill="white"/>
<path d="M13.2907 4.53655C13.2107 4.24985 12.9134 4.08231 12.6267 4.16232C12.3401 4.24232 12.1725 4.53959 12.2525 4.82628C12.3325 5.11298 12.6298 5.28052 12.9165 5.20051C13.2032 5.12051 13.3707 4.82324 13.2907 4.53655Z" fill="white"/>
<path d="M13.2536 10.6101C14.2853 10.3222 14.8904 9.24863 14.6025 8.21698C14.3146 7.18534 13.241 6.58026 12.2094 6.86816C11.1778 7.15606 10.5727 8.22959 10.8606 9.26123C11.1485 10.2929 12.222 10.898 13.2536 10.6101ZM12.3857 7.5C13.069 7.30933 13.78 7.71006 13.9706 8.39331C14.1613 9.07656 13.7606 9.78754 13.0773 9.97822C12.3941 10.1689 11.6831 9.76815 11.4924 9.08491C11.3017 8.40166 11.7025 7.69067 12.3857 7.5Z" fill="white"/>
<path d="M8.3196 11.3059C8.13364 11.3578 7.94388 11.3676 7.75549 11.335C7.57712 11.3042 7.40733 11.4238 7.37639 11.6023C7.3455 11.7808 7.46513 11.9505 7.64368 11.9813C7.92871 12.0307 8.21548 12.016 8.49595 11.9377C9.5276 11.6498 10.1327 10.5763 9.84477 9.54466C9.55687 8.51302 8.4833 7.90791 7.45169 8.1958C6.42009 8.48369 5.81498 9.55726 6.10288 10.5889C6.12866 10.6813 6.16141 10.7723 6.20021 10.8593C6.27392 11.0248 6.46824 11.0989 6.63329 11.0254C6.79876 10.9517 6.87314 10.7578 6.79941 10.5924C6.77364 10.5345 6.75188 10.4741 6.73472 10.4126C6.54405 9.72934 6.94477 9.01831 7.62802 8.82763C8.31127 8.63696 9.02225 9.0377 9.21294 9.72099C9.40362 10.4043 9.00284 11.1153 8.3196 11.3059Z" fill="white"/>
<path d="M9.36498 6.55828C8.67995 6.74945 7.96712 6.34768 7.77595 5.66265C7.58478 4.97762 7.98656 4.26479 8.67158 4.07362C9.35661 3.88245 10.0694 4.28423 10.2606 4.96926C10.4518 5.65428 10.05 6.36713 9.36498 6.55828ZM8.84886 4.70885C8.51409 4.80227 8.31775 5.15061 8.41118 5.48538C8.5046 5.82014 8.85294 6.01648 9.18771 5.92306C9.52247 5.82964 9.71881 5.48129 9.62539 5.14653C9.53196 4.81177 9.18362 4.61543 8.84886 4.70885Z" fill="white"/>
<path d="M39.204 12.656C38.3267 13.5987 37.3187 14.07 36.18 14.07C35.5173 14.07 34.9013 13.9253 34.332 13.636C33.772 13.3467 33.2867 12.9687 32.876 12.502C32.4653 12.026 32.1387 11.4847 31.896 10.878C31.6627 10.2713 31.546 9.646 31.546 9.002C31.546 8.33 31.6627 7.69533 31.896 7.098C32.1293 6.49133 32.4513 5.95933 32.862 5.502C33.2727 5.03533 33.7627 4.66666 34.332 4.396C34.9013 4.12533 35.5173 3.99 36.18 3.99C37.1413 3.99 37.93 4.19066 38.546 4.592C39.1713 4.99333 39.6473 5.516 39.974 6.16L39.008 6.832C38.7093 6.25333 38.3127 5.824 37.818 5.544C37.3233 5.264 36.768 5.124 36.152 5.124C35.648 5.124 35.1907 5.236 34.78 5.46C34.3693 5.67466 34.0193 5.964 33.73 6.328C33.4407 6.68266 33.2167 7.098 33.058 7.574C32.8993 8.04066 32.82 8.526 32.82 9.03C32.82 9.562 32.9087 10.066 33.086 10.542C33.2633 11.0087 33.506 11.424 33.814 11.788C34.122 12.1427 34.486 12.4227 34.906 12.628C35.326 12.8333 35.7833 12.936 36.278 12.936C37.3607 12.936 38.336 12.4133 39.204 11.368V9.996H37.062V9.044H40.268V14H39.204V12.656Z" fill="white"/>
<path d="M45.2082 4.06H46.2722L50.3322 14H48.9882L47.8122 11.088H43.6402L42.4782 14H41.1342L45.2082 4.06ZM47.5322 10.108L45.7402 5.516L43.8922 10.108H47.5322Z" fill="white"/>
<path d="M60.2548 14V6.314L56.9508 12.208H56.2368L52.9188 6.314V14H51.6588V4.06H52.9888L56.5868 10.514L60.1988 4.06H61.5148V14H60.2548Z" fill="white"/>
<path d="M70.6431 12.88V14H63.8951V4.06H70.5171V5.18H65.1551V8.4H69.8171V9.45H65.1551V12.88H70.6431Z" fill="white"/>
<path d="M72.3717 14V4.06H78.9377V5.18H73.6317V8.498H78.0976V9.548H73.6317V14H72.3717Z" fill="white"/>
<path d="M80.9118 4.06L83.9218 9.24L86.9598 4.06H88.3318L84.5518 10.374V14H83.2918V10.346L79.5258 4.06H80.9118Z" fill="white"/>
</svg>
